<svg width="20" height="20" viewBox="0 0 20 20" fill="none" xmlns="http://www.w3.org/2000/svg">
<g clip-path="url(#clip0)">
<mask id="path-1-outside-1" maskUnits="userSpaceOnUse" x="2.0102" y="2.01001" width="15.87" height="15.87" fill="black">
<rect fill="white" x="2.0102" y="2.01001" width="15.87" height="15.87"/>
<path d="M8.42182 17.2H16.0245C16.3363 17.2 16.6354 17.0761 16.8558 16.8557C17.0763 16.6352 17.2002 16.3361 17.2002 16.0243V8.42163C17.2002 8.10982 17.0763 7.81079 16.8558 7.59031C16.6354 7.36982 16.3363 7.24596 16.0245 7.24596H12.6542V3.87569C12.6542 3.56388 12.5304 3.26484 12.3099 3.04436C12.0894 2.82388 11.7904 2.70001 11.4786 2.70001H3.87587C3.56406 2.70001 3.26502 2.82388 3.04454 3.04436C2.82406 3.26484 2.7002 3.56388 2.7002 3.87569V11.4784C2.7002 11.7902 2.82406 12.0892 3.04454 12.3097C3.26502 12.5302 3.56406 12.6541 3.87587 12.6541H7.24614V16.0243C7.24614 16.3361 7.37001 16.6352 7.59049 16.8557C7.81097 17.0761 8.11001 17.2 8.42182 17.2ZM12.6542 11.4784V7.63785H16.0245C16.2324 7.63785 16.4318 7.72043 16.5787 7.86741C16.7257 8.0144 16.8083 8.21376 16.8083 8.42163V16.0243C16.8083 16.2322 16.7257 16.4316 16.5787 16.5786C16.4318 16.7255 16.2324 16.8081 16.0245 16.8081H8.42182C8.21394 16.8081 8.01459 16.7255 7.8676 16.5786C7.72061 16.4316 7.63803 16.2322 7.63803 16.0243V12.6541H11.4786C11.7904 12.6541 12.0894 12.5302 12.3099 12.3097C12.5304 12.0892 12.6542 11.7902 12.6542 11.4784ZM3.09209 11.4784V3.87569C3.09209 3.66782 3.17466 3.46846 3.32165 3.32147C3.46864 3.17448 3.668 3.0919 3.87587 3.0919H11.4786C11.6864 3.0919 11.8858 3.17448 12.0328 3.32147C12.1798 3.46846 12.2624 3.66782 12.2624 3.87569V11.4784C12.2624 11.6863 12.1798 11.8856 12.0328 12.0326C11.8858 12.1796 11.6864 12.2622 11.4786 12.2622H3.87587C3.668 12.2622 3.46864 12.1796 3.32165 12.0326C3.17466 11.8856 3.09209 11.6863 3.09209 11.4784Z"/>
</mask>
<path d="M8.42182 17.2H16.0245C16.3363 17.2 16.6354 17.0761 16.8558 16.8557C17.0763 16.6352 17.2002 16.3361 17.2002 16.0243V8.42163C17.2002 8.10982 17.0763 7.81079 16.8558 7.59031C16.6354 7.36982 16.3363 7.24596 16.0245 7.24596H12.6542V3.87569C12.6542 3.56388 12.5304 3.26484 12.3099 3.04436C12.0894 2.82388 11.7904 2.70001 11.4786 2.70001H3.87587C3.56406 2.70001 3.26502 2.82388 3.04454 3.04436C2.82406 3.26484 2.7002 3.56388 2.7002 3.87569V11.4784C2.7002 11.7902 2.82406 12.0892 3.04454 12.3097C3.26502 12.5302 3.56406 12.6541 3.87587 12.6541H7.24614V16.0243C7.24614 16.3361 7.37001 16.6352 7.59049 16.8557C7.81097 17.0761 8.11001 17.2 8.42182 17.2ZM12.6542 11.4784V7.63785H16.0245C16.2324 7.63785 16.4318 7.72043 16.5787 7.86741C16.7257 8.0144 16.8083 8.21376 16.8083 8.42163V16.0243C16.8083 16.2322 16.7257 16.4316 16.5787 16.5786C16.4318 16.7255 16.2324 16.8081 16.0245 16.8081H8.42182C8.21394 16.8081 8.01459 16.7255 7.8676 16.5786C7.72061 16.4316 7.63803 16.2322 7.63803 16.0243V12.6541H11.4786C11.7904 12.6541 12.0894 12.5302 12.3099 12.3097C12.5304 12.0892 12.6542 11.7902 12.6542 11.4784ZM3.09209 11.4784V3.87569C3.09209 3.66782 3.17466 3.46846 3.32165 3.32147C3.46864 3.17448 3.668 3.0919 3.87587 3.0919H11.4786C11.6864 3.0919 11.8858 3.17448 12.0328 3.32147C12.1798 3.46846 12.2624 3.66782 12.2624 3.87569V11.4784C12.2624 11.6863 12.1798 11.8856 12.0328 12.0326C11.8858 12.1796 11.6864 12.2622 11.4786 12.2622H3.87587C3.668 12.2622 3.46864 12.1796 3.32165 12.0326C3.17466 11.8856 3.09209 11.6863 3.09209 11.4784Z" fill="black"/>
<path d="M8.42182 17.2H16.0245C16.3363 17.2 16.6354 17.0761 16.8558 16.8557C17.0763 16.6352 17.2002 16.3361 17.2002 16.0243V8.42163C17.2002 8.10982 17.0763 7.81079 16.8558 7.59031C16.6354 7.36982 16.3363 7.24596 16.0245 7.24596H12.6542V3.87569C12.6542 3.56388 12.5304 3.26484 12.3099 3.04436C12.0894 2.82388 11.7904 2.70001 11.4786 2.70001H3.87587C3.56406 2.70001 3.26502 2.82388 3.04454 3.04436C2.82406 3.26484 2.7002 3.56388 2.7002 3.87569V11.4784C2.7002 11.7902 2.82406 12.0892 3.04454 12.3097C3.26502 12.5302 3.56406 12.6541 3.87587 12.6541H7.24614V16.0243C7.24614 16.3361 7.37001 16.6352 7.59049 16.8557C7.81097 17.0761 8.11001 17.2 8.42182 17.2ZM12.6542 11.4784V7.63785H16.0245C16.2324 7.63785 16.4318 7.72043 16.5787 7.86741C16.7257 8.0144 16.8083 8.21376 16.8083 8.42163V16.0243C16.8083 16.2322 16.7257 16.4316 16.5787 16.5786C16.4318 16.7255 16.2324 16.8081 16.0245 16.8081H8.42182C8.21394 16.8081 8.01459 16.7255 7.8676 16.5786C7.72061 16.4316 7.63803 16.2322 7.63803 16.0243V12.6541H11.4786C11.7904 12.6541 12.0894 12.5302 12.3099 12.3097C12.5304 12.0892 12.6542 11.7902 12.6542 11.4784ZM3.09209 11.4784V3.87569C3.09209 3.66782 3.17466 3.46846 3.32165 3.32147C3.46864 3.17448 3.668 3.0919 3.87587 3.0919H11.4786C11.6864 3.0919 11.8858 3.17448 12.0328 3.32147C12.1798 3.46846 12.2624 3.66782 12.2624 3.87569V11.4784C12.2624 11.6863 12.1798 11.8856 12.0328 12.0326C11.8858 12.1796 11.6864 12.2622 11.4786 12.2622H3.87587C3.668 12.2622 3.46864 12.1796 3.32165 12.0326C3.17466 11.8856 3.09209 11.6863 3.09209 11.4784Z" stroke="black" mask="url(#path-1-outside-1)"/>
</g>
<defs>
<clipPath id="clip0">
<rect width="28.9855" height="28.9855" fill="white" transform="scale(0.69)"/>
</clipPath>
</defs>
</svg>
